<?xml version="1.0" standalone="no"?>
<!DOCTYPE svg PUBLIC "-//W3C//DTD SVG 20010904//EN"
 "http://www.w3.org/TR/2001/REC-SVG-20010904/DTD/svg10.dtd">
<svg version="1.0" xmlns="http://www.w3.org/2000/svg"
 width="512.000000pt" height="512.000000pt" viewBox="0 0 512.000000 512.000000"
 preserveAspectRatio="xMidYMid meet">

<g transform="translate(0.000000,512.000000) scale(0.100000,-0.100000)"
fill="#000000" stroke="none">
<path d="M560 3165 l0 -125 220 0 220 0 0 -650 0 -650 155 0 155 0 0 650 0
650 225 0 225 0 0 125 0 125 -600 0 -600 0 0 -125z"/>
<path d="M2000 2514 l0 -776 423 4 422 4 81 28 c132 45 218 124 265 243 19 49
23 77 24 178 0 111 -2 124 -28 180 -44 95 -117 161 -219 200 -55 20 -60 38
-20 59 41 21 111 101 135 154 28 62 30 194 4 269 -23 66 -94 146 -158 179
-101 51 -134 54 -546 54 l-383 0 0 -776z m720 524 c25 -13 54 -37 66 -55 40
-61 39 -175 -3 -232 -50 -67 -108 -81 -324 -81 l-149 0 0 195 0 195 183 0
c170 0 186 -2 227 -22z m55 -608 c51 -16 110 -75 124 -125 24 -89 9 -192 -37
-246 -53 -64 -92 -73 -334 -77 l-218 -4 0 237 0 237 213 -5 c125 -3 228 -10
252 -17z"/>
<path d="M3360 3165 l0 -125 225 0 225 0 0 -650 0 -650 155 0 155 0 0 650 0
650 225 0 225 0 0 125 0 125 -605 0 -605 0 0 -125z"/>
</g>
</svg>
